<?xml version="1.0" standalone="no"?>
<!DOCTYPE svg PUBLIC "-//W3C//DTD SVG 20010904//EN"
 "http://www.w3.org/TR/2001/REC-SVG-20010904/DTD/svg10.dtd">
<svg version="1.0" xmlns="http://www.w3.org/2000/svg"
 width="512.000000pt" height="512.000000pt" viewBox="0 0 512.000000 512.000000"
 preserveAspectRatio="xMidYMid meet">
<metadata>
Created by potrace 1.11, written by Peter Selinger 2001-2013
</metadata>
<g transform="translate(0.000000,512.000000) scale(0.100000,-0.100000)"
fill="#000000" stroke="none">
<path d="M2315 5109 c-556 -57 -1079 -290 -1476 -657 -454 -418 -720 -922
-816 -1542 -21 -142 -25 -528 -5 -665 59 -415 188 -761 406 -1095 178 -272
455 -548 726 -726 334 -218 683 -347 1095 -406 118 -17 512 -17 630 0 598 85
1094 331 1502 743 404 409 641 894 725 1484 17 118 17 512 0 630 -96 677 -410
1242 -927 1671 -343 284 -783 476 -1255 549 -126 19 -477 28 -605 14z m263
-1496 l-3 -188 -637 -3 -638 -2 0 190 0 190 640 0 640 0 -2 -187z m1252 -1058
l0 -1245 -220 0 -220 0 0 1055 0 1055 -177 2 -178 3 -3 188 -2 187 400 0 400
0 0 -1245z m-2369 705 c344 -34 617 -153 838 -365 192 -184 272 -362 272 -605
0 -266 -111 -486 -335 -667 -235 -188 -505 -290 -826 -309 l-110 -7 2 189 3
189 91 6 c310 22 601 222 669 460 35 123 18 274 -43 379 -35 61 -134 164 -206
212 -122 83 -271 134 -423 145 l-93 6 0 189 0 188 29 0 c16 0 75 -5 132 -10z"/>
</g>
</svg>
