<?xml version="1.0" encoding="utf-8"?>
<!-- Generator: Adobe Illustrator 22.1.0, SVG Export Plug-In . SVG Version: 6.00 Build 0)  -->
<svg version="1.1" id="Layer_1" xmlns="http://www.w3.org/2000/svg" xmlns:xlink="http://www.w3.org/1999/xlink" x="0px" y="0px"
	 viewBox="0 0 200 200" style="enable-background:new 0 0 200 200;" xml:space="preserve">
<style type="text/css">
	.st0{opacity:0.8;fill:#121212;fill-opacity:0.6;enable-background:new    ;}
	.st1{fill:#FFFFFF;}
</style>
<path class="st0" d="M100,200C44.8,200,0,155.2,0,100S44.8,0,100,0s100,44.8,100,100S155.2,200,100,200z"/>
<g id="Layer_1_1_">
	<path class="st1" d="M139.6,53.3c4.5,0,8.1,3.6,8.1,8.1v20.3c0,4.5-3.6,8.1-8.1,8.1h-20.3c-4.5,0-8.1-3.6-8.1-8.1V61.4
		c0-4.5,3.6-8.1,8.1-8.1H139.6 M139.6,45.2h-20.3c-9,0-16.2,7.3-16.2,16.2v20.3c0,9,7.3,16.2,16.2,16.2h20.3c9,0,16.2-7.3,16.2-16.2
		V61.4C155.8,52.4,148.6,45.2,139.6,45.2L139.6,45.2z M80.7,53.3c4.5,0,8.1,3.6,8.1,8.1v20.3c0,4.5-3.6,8.1-8.1,8.1H60.4
		c-4.5,0-8.1-3.6-8.1-8.1V61.4c0-4.5,3.6-8.1,8.1-8.1H80.7 M80.7,45.2H60.4c-9,0-16.2,7.3-16.2,16.2v20.3c0,9,7.3,16.2,16.2,16.2
		h20.3c9,0,16.2-7.3,16.2-16.2V61.4C96.9,52.4,89.6,45.2,80.7,45.2L80.7,45.2z M80.7,112.2c4.5,0,8.1,3.6,8.1,8.1v20.3
		c0,4.5-3.6,8.1-8.1,8.1H60.4c-4.5,0-8.1-3.6-8.1-8.1v-20.3c0-4.5,3.6-8.1,8.1-8.1H80.7 M80.7,104.1H60.4c-9,0-16.2,7.3-16.2,16.2
		v20.3c0,9,7.3,16.2,16.2,16.2h20.3c9,0,16.2-7.3,16.2-16.2v-20.3C96.9,111.4,89.6,104.1,80.7,104.1L80.7,104.1z M111.2,120.6h40.5
		c2.2,0,4.1-1.8,4.1-4.1c0-2.2-1.8-4.1-4.1-4.1h-40.5c-2.2,0-4.1,1.8-4.1,4.1C107.2,118.8,109,120.6,111.2,120.6z M151.8,128.7
		h-40.5c-2.2,0-4.1,1.8-4.1,4.1c0,2.2,1.8,4.1,4.1,4.1h40.5c2.2,0,4.1-1.8,4.1-4.1C155.8,130.5,154,128.7,151.8,128.7z M151.8,144.9
		h-40.5c-2.2,0-4.1,1.8-4.1,4.1c0,2.2,1.8,4.1,4.1,4.1h40.5c2.2,0,4.1-1.8,4.1-4.1C155.8,146.7,154,144.9,151.8,144.9z"/>
</g>
</svg>
