<?xml version="1.0" encoding="utf-8"?>
<!-- Generator: Adobe Illustrator 22.1.0, SVG Export Plug-In . SVG Version: 6.00 Build 0)  -->
<svg version="1.1" id="Layer_1" xmlns="http://www.w3.org/2000/svg" xmlns:xlink="http://www.w3.org/1999/xlink" x="0px" y="0px"
	 viewBox="0 0 200 200" style="enable-background:new 0 0 200 200;" xml:space="preserve">
<style type="text/css">
	.st0{opacity:0.8;fill:#121212;fill-opacity:0.6;}
	.st1{fill:#FFFFFF;}
</style>
<g id="Layer_1_1_">
	<path class="st0" d="M100,200C44.8,200,0,155.2,0,100S44.8,0,100,0s100,44.8,100,100S155.2,200,100,200z"/>
	<path class="st1" d="M100.3,72.3c-15.2,0-27.5,12.3-27.5,27.5c0,15.2,12.3,27.5,27.5,27.5c15.2,0,27.5-12.3,27.5-27.5
		C127.8,84.7,115.5,72.3,100.3,72.3z M100.3,117.9c-9.9,0-18-8-18-18c0-9.9,8-18,18-18c9.9,0,18,8,18,18
		C118.2,109.8,110.2,117.9,100.3,117.9z M100.3,65.1c3.3,0,6-2.7,6-6V42.2c0-3.3-2.7-5.9-6-5.9c-3.3,0-5.9,2.6-6,5.9V59h0
		c0,0.1,0,0.1,0,0.1C94.3,62.5,96.9,65.1,100.3,65.1z M100.3,134.6c-3.3,0-5.9,2.6-6,5.9v16.8h0v0.1c0,3.3,2.7,6,6,6
		c3.3,0,6-2.7,6-6v-0.1h0v-16.8C106.2,137.3,103.5,134.6,100.3,134.6z M65.4,99.9c0-3.3-2.7-6-6-6H42.5c-3.3,0-5.9,2.7-5.9,6
		c0,3.3,2.6,5.9,5.9,6h16.9C62.7,105.9,65.4,103.2,65.4,99.9z M157.7,93.9h-16.9c-3.3,0-5.9,2.7-5.9,6c0,3.3,2.6,5.9,5.9,6h16.8v0
		h0.1c3.3,0,6-2.7,6-6C163.7,96.6,161,93.9,157.7,93.9z M65.5,126.2L65.5,126.2l-12,12c-2.3,2.3-2.3,6.1,0.1,8.4
		c2.3,2.3,6.1,2.3,8.4,0.1l11.9-11.9l0.1-0.1c2.3-2.3,2.3-6.1,0-8.5C71.6,123.8,67.8,123.8,65.5,126.2z M135.7,73l11.9-11.9l0.1-0.1
		c2.3-2.3,2.3-6.1,0-8.5c-2.3-2.3-6.1-2.3-8.5,0l-0.1,0.1l-11.9,11.9c-2.3,2.3-2.2,6.1,0.1,8.4C129.6,75.3,133.4,75.3,135.7,73z
		 M65.2,73.1L65.2,73.1c2.4,2.4,6.2,2.4,8.5,0.1c2.3-2.3,2.3-6.1,0-8.5l-0.1-0.1L61.7,52.8c-2.3-2.3-6.1-2.3-8.4,0.1
		c-2.3,2.3-2.3,6.1-0.1,8.4L65.2,73.1z M147.2,138.4l-11.9-11.9c-2.3-2.3-6.1-2.3-8.4,0.1c-2.3,2.3-2.3,6.1-0.1,8.4l11.9,11.9
		l0.1,0.1c2.3,2.3,6.1,2.3,8.5,0C149.7,144.6,149.7,140.8,147.2,138.4C147.3,138.4,147.2,138.4,147.2,138.4z"/>
</g>
</svg>
