<?xml version="1.0" encoding="utf-8"?>
<!-- Generator: Adobe Illustrator 22.1.0, SVG Export Plug-In . SVG Version: 6.00 Build 0)  -->
<svg version="1.1" id="Layer_1" xmlns="http://www.w3.org/2000/svg" xmlns:xlink="http://www.w3.org/1999/xlink" x="0px" y="0px"
	 viewBox="0 0 200 200" style="enable-background:new 0 0 200 200;" xml:space="preserve">
<style type="text/css">
	.st0{opacity:0.8;fill:#121212;fill-opacity:0.6;}
	.st1{fill:#FFFFFF;}
</style>
<g id="Layer_1_1_">
	<path class="st0" d="M100,200C44.8,200,0,155.2,0,100S44.8,0,100,0s100,44.8,100,100S155.2,200,100,200z"/>
	<path class="st1" d="M146.6,146.3c-24.8,24.8-65.1,24.8-90,0c-5.6-5.6-9.9-12-13-18.9c23.4,10.5,51.9,6.3,71.1-13
		c19.2-19.2,23.5-47.7,13-71.1c6.8,3.1,13.2,7.4,18.9,13C171.4,81.2,171.4,121.5,146.6,146.3z M99.9,101.2l-2.8,4.5l-0.7-5.3
		l-5.2-1.2l4.9-2.3l-0.4-5.3l3.7,3.8l5-2l-2.6,4.7l3.5,4L99.9,101.2z M99,83.6l-15.6-7.5L70.8,88.1L73,70.9l-15.2-8.3l17-3.1l3.1-17
		l8.3,15.2l17.2-2.3L91.5,68L99,83.6z M69.2,111.2l-4.2,6.8l-1.1-7.9l-7.9-1.9l7.3-3.4l-0.6-7.9l5.6,5.8l7.5-3l-3.9,7l5.3,6
		L69.2,111.2z"/>
</g>
</svg>
