<svg xmlns="http://www.w3.org/2000/svg">
    <symbol id="quyuguihua" viewBox="0 0 100 100">
        <path d="M62.2,38.4c0-6.7-5.5-12.2-12.2-12.2s-12.2,5.5-12.2,12.2S43.3,50.6,50,50.6S62.2,45.1,62.2,38.4z M41.8,38.4
		c0-4.5,3.7-8.2,8.2-8.2s8.2,3.7,8.2,8.2s-3.7,8.2-8.2,8.2C45.5,46.6,41.8,42.9,41.8,38.4z"/>
        <path d="M67.8,82H53.6c5.9-7.2,20.8-31.2,20.8-43.6C74.4,24.9,63.5,14,50,14S25.6,24.9,25.6,38.4
		c0,12.4,14.9,36.4,20.8,43.6H31.8c-1.1,0-2,0.9-2,2s0.9,2,2,2h36c1.1,0,2-0.9,2-2S68.9,82,67.8,82z M50,18
		c11.3,0,20.4,9.2,20.4,20.4C70.4,50.1,55,74.3,50,80c-5-5.8-20.4-30-20.4-41.6C29.6,27.2,38.7,18,50,18z"/>
    </symbol>
    <symbol id="shiwaijianshang" viewBox="0 0 100 100">
        <path d="M84,57.9c0-9.5-1.8-19.8-4.9-27.7c-4-10.4-10-15.8-17.1-15.8c-8.6,0-14.6,8.5-18.1,19.1
	c-2.8-3.5-6.2-5.4-9.9-5.4c-12.3,0-18,21-18,35.2c0,5.9,6.9,10.5,16,11.1v9.3c0,1.1,0.9,2,2,2s2-0.9,2-2v-9.3
	c5.5-0.4,10.3-2.2,13.2-5.1l-0.7-0.7c3.2,1.5,7.1,2.5,11.5,2.7v12.1c0,1.1,0.9,2,2,2s2-0.9,2-2V71.3C75.4,70.7,84,65,84,57.9z
	 M36,70.4v-17c0-1.1-0.9-2-2-2s-2,0.9-2,2v7.4l-3.9-3.4c-0.8-0.7-2.1-0.7-2.8,0.2c-0.7,0.8-0.7,2.1,0.2,2.8l6.5,5.8v4.2
	c-6-0.5-12-3.3-12-7.1c0-13,5.3-31.2,14-31.2c3.1,0,5.9,2,8.3,6l0.3-0.2c-1.7,6.7-2.6,13.8-2.6,20c0,3.6,2.2,6.8,5.8,9.2
	C43.5,68.8,40,70.1,36,70.4z M64,67.3V49.1c0.1-0.1,0.3-0.2,0.4-0.3l8-8c0.8-0.8,0.8-2,0-2.8s-2-0.8-2.8,0L64,43.5v-9.2
	c0-1.1-0.9-2-2-2s-2,0.9-2,2v21.5l-5.7-5c-0.8-0.7-2.1-0.7-2.8,0.2c-0.7,0.8-0.7,2.1,0.2,2.8l8.3,7.4v6c-8.9-0.5-16-4.6-16-9.4
	c0-9.1,1.9-19,5-26.6c2-4.8,6.3-12.9,13-12.9c6.8,0,11,7.2,13.4,13.3C78.2,38.9,80,49,80,57.9C80,62.6,72.9,66.7,64,67.3z"/>
    </symbol>
    <symbol id="sanweishapan" viewBox="0 0 100 100">
        <path d="M59.3,86.2c-1,0-1.9-0.8-2-1.9s0.7-2.1,1.8-2.1c22-1.6,35.2-8.7,35.2-14.5c0-3-3.3-5.6-6-7.2
					c-1-0.6-1.3-1.8-0.7-2.7c0.6-1,1.8-1.3,2.7-0.7c6.6,3.8,8,7.9,8,10.6c0,10.8-19.5,17.1-38.9,18.5C59.4,86.2,59.4,86.2,59.3,86.2
					z"/>
        <path d="M50,86.5c-27.6,0-48.4-8.1-48.4-18.9c0-2.8,1.5-7,8.4-10.9c1-0.5,2.2-0.2,2.7,0.8s0.2,2.2-0.8,2.7
					c-4.1,2.3-6.4,4.9-6.4,7.4c0,6.6,16.2,13.9,39.9,14.8l-4-4.5c-0.7-0.8-0.7-2.1,0.2-2.8c0.8-0.7,2.1-0.7,2.8,0.2l7,7.9
					c0.5,0.6,0.6,1.4,0.3,2.1C51.5,86.1,50.8,86.5,50,86.5z"/>
        <path d="M83.9,28.3L53.2,13.8c0,0,0,0-0.1-0.1c-0.6-0.4-1.3-0.4-1.9-0.1l-17,8c-0.9,0.2-1.6,1-1.6,2v7l-12.5,5.9
			c-0.7,0.3-1.1,1-1.1,1.8v19.6l0,0c0,0.8,0.4,1.5,1.1,1.9l22.8,10.8c0.1,0,0.1,0,0.2,0.1c0.1,0,0.1,0,0.1,0.1
			c0.2,0,0.3,0.1,0.5,0.1l0,0l0,0c0.2,0,0.3,0,0.5-0.1c0.1,0,0.1,0,0.1-0.1c0.1,0,0.1,0,0.2-0.1l39.2-18.5c0.7-0.3,1.1-1,1.1-1.8
			v-0.5v-19v-0.5C85.1,29.4,84.6,28.7,83.9,28.3z M54.1,18.7L79,30.4L63,38l-8.8-4.2V18.7H54.1z M52,37.3l6.2,2.9l-14,6.6v-5.9
			L52,37.3z M50.1,18.6v15.2l-5.8,2.7v-8l0,0c0-0.2,0-0.3,0-0.5s-0.1-0.4-0.2-0.6c-0.3-0.6-0.8-1-1.4-1.1l-4.5-2.1L50.1,18.6z
			 M36.7,27.9l0.9,0.4l-0.9,0.4V27.9z M40.3,31.4v13.8l-14.6-6.9L40.3,31.4z M41.9,50.4v15.2l-18.8-8.9V41.6L41.9,50.4z M81.1,49
			L45.9,65.6V50.4l17.6-8.3c0.2-0.1,0.4-0.1,0.6-0.3l17-8V49z"/>
        <path class="st1" d="M42.3,47.9"/>
    </symbol>
    <symbol id="jingzhuangtiyan" viewBox="0 0 100 100">
        <path d="M63,31H28c-1.1,0-2,0.9-2,2c0,1.1,0.9,2,2,2h35c1.1,0,2-0.9,2-2S64.1,31,63,31z"/>
        <path d="M75,31h-2v-6c0-3.9-3.1-7-7-7H25c-3.9,0-7,3.1-7,7v15c0,3.9,3.1,7,7,7h41c3.9,0,7-3.1,7-7v-5h2
		c1.9,0,4,1.1,4,3.1V48c0,2-2,4-4,4H48c-3.5,0-6,2.5-6,6v2h-5c-2.9,0-5,2.1-5,5v11c0,5.7,3.9,10,9,10h5c5.1,0,9-4.3,9-10V65
		c0-2.9-2.1-5-5-5h-4v-2c0-1.3,0.7-2,2-2h27c4.2,0,8-3.8,8-8v-9.8C83,34.1,79.5,31,75,31z M66,43H25c-1.7,0-3-1.3-3-3V25
		c0-1.7,1.4-3,3-3h41c1.7,0,3,1.3,3,3v15C69,41.7,67.7,43,66,43z M51,65v11c0,3-1.7,6-5,6h-5c-3.3,0-5-3-5-6V65c0-0.6,0.4-1,1-1h13
		C50.6,64,51,64.4,51,65z"/>
    </symbol>
    <symbol id="pinpaizhanshi" viewBox="0 0 100 100">
        <path d="M76.3,53.2c-0.2-0.7-0.9-1.3-1.6-1.4l-15.8-2.3l-7.1-14.3c-0.3-0.7-1-1.1-1.8-1.1s-1.5,0.4-1.8,1.1l-7.1,14.3
		l-15.8,2.3c-0.8,0.1-1.4,0.6-1.6,1.4c-0.2,0.7,0,1.5,0.5,2.1l11.5,11.2L33,82.3c-0.1,0.8,0.2,1.5,0.8,2c0.3,0.3,0.8,0.4,1.2,0.4
		c0.3,0,0.6-0.1,0.9-0.2L50,76.8l14.2,7.4c0.7,0.4,1.5,0.3,2.1-0.2c0.6-0.4,0.9-1.2,0.8-2l-2.7-15.8L75.9,55
		C76.4,54.7,76.6,53.9,76.3,53.2z M60.8,64.3c-0.5,0.5-0.7,1.1-0.6,1.8l2.2,12.8l-11.5-6c-0.6-0.3-1.3-0.3-1.9,0l-11.5,6l2.2-12.8
		c0.1-0.6-0.1-1.3-0.6-1.8l-9.3-9.1l12.9-1.9c0.7-0.1,1.2-0.5,1.5-1.1L50,40.6l5.8,11.7c0.3,0.6,0.9,1,1.5,1.1l12.9,1.9L60.8,64.3z"
        />
        <path d="M32.2,43.2c1.1,0,2-0.9,2-2V22.7c0-1.8,1.4-3.2,3.2-3.2h25.3c1.8,0,3.2,1.4,3.2,3.2v18.6c0,1.1,0.9,2,2,2
		s2-0.9,2-2V22.7c0-4-3.2-7.2-7.2-7.2H37.4c-4,0-7.2,3.2-7.2,7.2v18.6C30.2,42.3,31.1,43.2,32.2,43.2z"/>
    </symbol>


    <symbol id="ctrMusic" viewBox="0 0 100 100">
        <path d="M92.9,8.9v62.5c0,1.9-0.6,3.5-1.9,5c-1.3,1.4-2.9,2.6-4.8,3.4c-1.9,0.8-3.9,1.4-5.8,1.8s-3.7,0.6-5.4,0.6
	s-3.5-0.2-5.4-0.6c-1.9-0.4-3.8-1-5.8-1.8s-3.6-1.9-4.8-3.4c-1.3-1.4-1.9-3.1-1.9-5s0.6-3.5,1.9-5c1.3-1.4,2.9-2.6,4.8-3.4
	c2-0.8,3.9-1.4,5.8-1.8c1.9-0.4,3.7-0.6,5.4-0.6c3.9,0,7.5,0.7,10.7,2.2v-30L42.8,46.1v39.6c0,1.9-0.6,3.5-1.9,5
	c-1.3,1.4-2.9,2.6-4.8,3.4c-2,0.8-3.9,1.4-5.8,1.8c-1.9,0.4-3.7,0.6-5.4,0.6s-3.5-0.2-5.4-0.6c-1.9-0.4-3.8-1-5.8-1.8
	c-2-0.8-3.6-1.9-4.8-3.4c-1.3-1.4-1.9-3.1-1.9-5c0-1.9,0.6-3.5,1.9-5c1.3-1.4,2.9-2.6,4.8-3.4c1.9-0.8,3.9-1.4,5.8-1.8
	c1.9-0.4,3.7-0.6,5.4-0.6c3.9,0,7.5,0.7,10.7,2.2v-54c0-1.1,0.4-2.2,1.1-3.1c0.7-0.9,1.6-1.6,2.7-2L86,3.8c0.5-0.2,1-0.2,1.5-0.2
	c1.5,0,2.7,0.5,3.8,1.5C92.4,6.2,92.9,7.4,92.9,8.9L92.9,8.9z"/>
    </symbol>
    <symbol id="ctrTools" viewBox="0 0 100 100">
        <path d="M30.2,45.9c1.5,1.5,7.2,7.5,7.2,7.5l3.2-3.3l-5-5.1l9.5-10.1c0,0-4.3-4.2-2.4-2.5c1.8-6.7,0.2-14.1-4.9-19.4
	c-5-5.2-12.2-6.9-18.6-5.1L30,19.1l-2.9,11l-10.6,2.9L5.7,21.8c-1.7,6.6-0.1,14,5,19.2C15.9,46.5,23.5,48.1,30.2,45.9L30.2,45.9z
	 M66.4,56.8l-13.1,13l21.6,22.4c1.8,1.8,4.1,2.7,6.4,2.7c2.3,0,4.6-0.9,6.4-2.7c3.5-3.7,3.5-9.6,0-13.2L66.4,56.8L66.4,56.8z
	 M95,19.2L81.2,5l-40.6,42l5,5.1L21.3,77.2l-5.6,3L7.9,93l2,2.1l12.4-8.1l2.9-5.7l24.3-25.1l5,5.1L95,19.2L95,19.2z"/>
    </symbol>
    <symbol id="ctrGyro" viewBox="0 0 100 100">
        <path d="M88.7,49.1c-0.5-16.2-11-30.9-27.1-36.1l0.5-1.8c0.2-0.9-0.2-2-1.4-2.3c-0.9-0.2-2,0.2-2.3,1.4l-0.5,1.8
	C41.8,8.5,25.1,16,16.8,29.7C10.5,31.3,6.4,34,5.3,38s1.1,8.6,5.9,12.9c0.5,16.2,11,30.9,27.1,36.1l-0.5,1.8c-0.2,0.9,0.2,2,1.4,2.3
	c0.9,0.2,2-0.2,2.3-1.4l0.5-1.8c16.5,3.6,32.9-3.8,41.5-17.8c6.3-1.6,10.4-4.3,11.5-8.3C95.7,58.1,93.5,53.6,88.7,49.1L88.7,49.1z
	 M60.8,16.6c13.3,4.3,22.3,16,24.1,29.1c-5.4-4.1-12.9-7.9-21.2-10.8l-3.6,12.9c5.2,2.3,8.1,5,7.7,7c-0.7,2.7-8.3,3.2-17.6,1.1
	L60.8,16.6L60.8,16.6z M57.1,15.7L46.6,55c-9-2.7-15.3-6.8-14.7-9.7c0.5-2,4.5-2.7,10.1-2.3l3.4-12.9c-9-1.6-17.1-2-23.9-1.1
	C29.9,18.2,43.6,12.8,57.1,15.7z M39.1,83.4c-13.3-4.3-22.3-16-24.1-29.1c6.8,5.2,16.7,9.9,28.4,13.1L39.1,83.4z M42.7,84.3l4.3-16
	c11.7,2.9,22.5,3.8,31.1,2.7C70,81.8,56.2,87.2,42.7,84.3L42.7,84.3z"/>
    </symbol>
    <symbol id="ctrQr" viewBox="0 0 100 100">
        <path d="M29.5,70.5v8.2h-8.2v-8.2H29.5z M29.5,21.4v8.2h-8.2v-8.2C21.4,21.4,29.5,21.4,29.5,21.4z M78.6,21.4v8.2h-8.2
	v-8.2C70.5,21.4,78.6,21.4,78.6,21.4z M13.2,86.8h24.5V62.3H13.2C13.2,62.3,13.2,86.8,13.2,86.8z M13.2,37.7h24.5V13.2H13.2
	C13.2,13.2,13.2,37.7,13.2,37.7z M62.3,37.7h24.5V13.2H62.3V37.7z M45.9,54.1V95H5V54.1H45.9z M78.6,86.8V95h-8.2v-8.2H78.6z
	 M95,86.8V95h-8.2v-8.2H95z M95,54.1v24.5H70.5v-8.2h-8.2V95h-8.2V54.1h24.5v8.2h8.2v-8.2H95z M45.9,5v40.9H5V5C5,5,45.9,5,45.9,5z
	 M95,5v40.9H54.1V5C54.1,5,95,5,95,5z"/>
    </symbol>
    <symbol id="ctrPlace" viewBox="0 0 100 100">
        <path d="M87,7.9L10.3,42c-5.7,2.7-5.4,5.4,0.8,6.5l25.7,4.2c4.2,0.8,8.4,4.6,9.2,8.8l5.4,26.8c1.1,6.1,4.2,6.5,6.9,0.8
	l34.5-75.2C95.4,7.9,92.7,5.2,87,7.9L87,7.9z"/>
    </symbol>
    <symbol id="ctrCal" viewBox="0 0 100 100">
        <path d="M77.1,3.6H22.9c-4.3,0-7.7,3.5-7.7,7.7v77.4c0,4.3,3.5,7.7,7.7,7.7h54.2c4.3,0,7.7-3.5,7.7-7.7V11.3
	C84.8,7,81.4,3.6,77.1,3.6z M38.4,84.8H26.8V73.2h11.6V84.8z M38.4,67.4H26.8V55.8h11.6V67.4z M38.4,50H26.8V38.4h11.6V50z
	 M55.8,84.8H44.2V73.2h11.6L55.8,84.8L55.8,84.8z M55.8,67.4H44.2V55.8h11.6L55.8,67.4L55.8,67.4z M55.8,50H44.2V38.4h11.6L55.8,50
	L55.8,50z M73.2,84.8H61.6v-29h11.6V84.8z M73.2,50H61.6V38.4h11.6V50z M73.2,28.7H26.8V17.1h46.4V28.7z"/>
    </symbol>
    <symbol id="ctrInfo" viewBox="0 0 100 100">
        <path d="M62.1,80c-6,9.1-12.2,16.1-22.6,16.1C32.4,95,29.4,89.9,31,84.7l13.3-44.2c0.4-1.1-0.3-2.3-1.2-2.6
	c-1-0.4-2.9,0.9-4.6,2.8l-7.9,10c-0.3-1.7,0-4.3,0-5.4c6-9.1,16.1-16.4,22.7-16.4c6.4,0.6,9.4,5.8,8.3,11.5L48.1,84.8
	c-0.1,1,0.4,2,1.2,2.4c1,0.4,3-0.9,4.8-2.8l8-9.7C62.4,76.2,62.1,79.1,62.1,80z M60.3,22.2c-5.2,0-9.3-3.8-9.3-9.2
	c0-5.5,4.1-9.2,9.3-9.2s9.3,3.8,9.3,9.2C69.6,18.6,65.5,22.2,60.3,22.2z"/>
    </symbol>

	<symbol id="tel" viewBox="0 0 100 100">
	<path d="M46.091,73.723 C46.091,73.723 48.543,72.242 51.658,74.081 C54.773,75.919 65.243,84.091 62.689,88.636 C60.033,93.232 52.475,97.675 40.269,92.262 C28.063,86.848 21.577,77.656 16.624,71.221 C11.67,64.837 0.587,47.78 8.452,30.875 C8.452,30.875 12.385,24.134 16.828,23.674 C16.828,23.674 18.922,23.215 21.731,26.636 C24.488,30.058 28.983,37.923 27.961,41.243 C27.961,41.243 25.612,44.256 24.437,46.196 C23.263,48.188 19.79,50.64 21.577,56.359 C23.365,62.028 31.434,76.277 39.707,76.226 C39.707,76.226 43.231,75.97 46.091,73.723" />
      <path d="M68.409,59.628 C65.447,59.321 63.302,56.615 63.608,53.653 C64.579,44.766 58.195,36.748 49.309,35.727 C46.347,35.421 44.202,32.714 44.508,29.752 C44.865,26.739 47.521,24.594 50.534,24.951 C65.396,26.585 76.07,40.017 74.435,54.878 C74.129,57.789 71.422,59.934 68.409,59.628" />
      <path d="M88.071,61.773 C85.058,61.415 82.913,58.76 83.219,55.747 C85.415,36.084 71.167,18.261 51.454,16.065 C48.492,15.707 46.347,13.052 46.653,10.038 C46.959,7.076 49.666,4.931 52.628,5.289 C78.266,8.098 96.855,31.335 93.995,56.972 C93.74,59.985 91.033,62.13 88.071,61.773" />
	</symbol>


</svg>