<?xml version="1.0" encoding="utf-8"?>
<!-- Generator: Adobe Illustrator 22.1.0, SVG Export Plug-In . SVG Version: 6.00 Build 0)  -->
<svg version="1.1" id="Layer_1" xmlns="http://www.w3.org/2000/svg" xmlns:xlink="http://www.w3.org/1999/xlink" x="0px" y="0px"
	 viewBox="0 0 200 1000" style="enable-background:new 0 0 200 1000;" xml:space="preserve">
<style type="text/css">
	.st0{fill:#FFFFFF;}
</style>
<path class="st0" d="M127.3,280.7v11.7c0,1.4,1.1,2.5,2.5,2.5s2.5-1.1,2.5-2.5v-11.7c6.9-0.5,13.3-3.2,17-6.8
	c3.8,1.6,8.3,2.7,13.3,2.9v15.3c0,1.4,1.1,2.5,2.5,2.5s2.5-1.1,2.5-2.5v-15.3c14.5-0.7,25.3-7.9,25.3-16.9c0-12-2.3-25-6.2-35
	c-5-13.1-12.6-19.9-21.6-19.9c-10.9,0-18.4,10.7-22.8,24.1c-3.5-4.4-7.8-6.8-12.5-6.8c-15.5,0-22.7,26.5-22.7,44.4
	C107.1,274.1,115.8,280,127.3,280.7z M151.9,251.3c0.9-1.1,2.5-1.1,3.5-0.3l7.2,6.3v-27.1c0-1.4,1.1-2.5,2.5-2.5s2.5,1.1,2.5,2.5
	v11.6l7.1-6.9c1-1,2.5-1,3.5,0s1.1,2.4,0.1,3.4l-10.1,10.1c-0.1,0.1-0.4,0.3-0.5,0.4v23l-5-0.1v-7.6l-10.5-9.3
	C151.1,253.9,151.1,252.3,151.9,251.3z M130,227.2c3.9,0,7.4,2.5,10.5,7.6l0.4-0.3c-2.1,8.5-3.3,17.4-3.3,25.2
	c0,4.5,2.8,8.6,7.3,11.6c-3.1,2.4-7.5,4-12.6,4.4v-21.5c0-1.4-1.1-2.5-2.5-2.5s-2.5,1.1-2.5,2.5v9.3l-4.9-4.3
	c-1-0.9-2.7-0.9-3.5,0.3c-0.9,1-0.9,2.7,0.3,3.5l8.2,7.3v5.3c-7.6-0.6-15.1-4.2-15.1-9C112.3,250.2,119,227.2,130,227.2z"/>
<path class="st0" d="M27.3,280.7v11.7c0,1.4,1.1,2.5,2.5,2.5s2.5-1.1,2.5-2.5v-11.7c6.9-0.5,13-2.8,16.7-6.4l-0.9-0.9
	c4,1.9,9,3.2,14.5,3.4v15.3c0,1.4,1.1,2.5,2.5,2.5s2.5-1.1,2.5-2.5v-15.3c14.5-0.7,25.3-7.9,25.3-16.9c0-12-2.3-25-6.2-35
	c-5-13.1-12.6-19.9-21.6-19.9c-10.9,0-18.4,10.7-22.8,24.1c-3.5-4.4-7.8-6.8-12.5-6.8c-15.5,0-22.7,26.5-22.7,44.4
	C7.1,274.1,15.8,280,27.3,280.7z M48.9,226.1c2.5-6.1,8-16.3,16.4-16.3c8.6,0,13.9,9.1,16.9,16.8c3.5,9.2,5.8,22,5.8,33.2
	c-0.1,6-9.1,11.2-20.3,12v-23c0.1-0.1,0.4-0.3,0.5-0.4l10.1-10.1c1-1,1-2.5,0-3.5s-2.5-1-3.5,0l-7.1,6.9v-11.6
	c0-1.4-1.1-2.5-2.5-2.5s-2.5,1.1-2.5,2.5v27.1l-7.2-6.3c-1-0.9-2.7-0.9-3.5,0.3c-0.9,1-0.9,2.7,0.3,3.5l10.5,9.3v7.6
	c-11.2-0.6-20.2-5.8-20.2-11.9C42.6,248.2,45,235.7,48.9,226.1z M30,227.2c3.9,0,7.4,2.5,10.5,7.6l0.4-0.3
	c-2.1,8.5-3.3,17.4-3.3,25.2c0,4.5,2.8,8.6,7.3,11.6c-3.1,2.4-7.5,4-12.6,4.4v-21.5c0-1.4-1.1-2.5-2.5-2.5s-2.5,1.1-2.5,2.5v9.3
	l-4.9-4.3c-1-0.9-2.7-0.9-3.5,0.3c-0.9,1-0.9,2.7,0.3,3.5l8.2,7.3v5.3c-7.6-0.6-15.1-4.2-15.1-9C12.3,250.2,19,227.2,30,227.2z"/>
<path class="st0" d="M83.3,40.2H55.9H52h-4l-3.9,3.9H52V50L37.2,61l-6.8-9L13.7,65.4l4.2-21.2h6.4l-2.8-3.9h-6.7L5,95h90L83.3,40.2z
	 M55.9,52v-7.8h24.8l3.6,17.3l-12.8-1.7L57.8,71.5L48,75.4l-8.2-11L55.9,52z M9.2,91.1l3.4-20.6l17.8-12.7l15.7,21.5l10.4-3L59.4,91
	L9.2,91.1z M60.1,75.2l13.4-11.5l11.9,1.8l5.2,25.6H63.3L60.1,75.2z"/>
<path class="st0" d="M34.3,50l0.7-0.7c0,0,16.9-17.8,16.9-27C52,12.7,44.1,5,34.3,5c-9.7,0-17.6,7.7-17.6,17.2
	c0,9.3,16.9,27,16.9,27L34.3,50z M34.3,8.9C43,8.9,48,14.2,48,22.6c0,7.5-13.7,22.6-13.7,22.6S20.7,30.1,20.7,22.6
	C20.7,14.2,25.7,8.9,34.3,8.9z"/>
<path class="st0" d="M44.1,22.6c0-5.4-4.4-9.8-9.8-9.8s-9.8,4.4-9.8,9.8s4.4,9.8,9.8,9.8S44.1,28,44.1,22.6z M28.5,22.6
	c0-3.2,2.6-5.9,5.9-5.9c3.2,0,5.9,2.6,5.9,5.9c0,3.2-2.6,5.9-5.9,5.9S28.5,25.8,28.5,22.6z"/>
<polygon class="st0" points="152,50 152,40.2 148,40.2 136.3,52 130.4,52 137.2,61 "/>
<polygon class="st0" points="183.3,40.2 155.9,40.2 155.9,52 139.8,64.5 148,75.4 157.8,71.5 171.5,59.8 187.2,61.7 187.2,65.7 
	173.5,63.7 160.1,75.2 163.7,93 159.8,93 156.5,76.4 146.1,79.4 130.4,57.8 110.9,71.5 110.9,67.6 130.4,52 121.6,40.2 114.8,40.2 
	105,95 195,95 "/>
<path class="st0" d="M134.3,50l0.7-0.7c0,0,16.9-17.8,16.9-27c0-9.5-7.9-17.2-17.6-17.2s-17.6,7.7-17.6,17.2c0,9.3,16.9,27,16.9,27
	L134.3,50z M124.6,22.6c0-5.4,4.4-9.8,9.8-9.8s9.8,4.4,9.8,9.8s-4.4,9.8-9.8,9.8C128.9,32.4,124.6,28,124.6,22.6z"/>
<ellipse class="st0" cx="134.3" cy="22.6" rx="5.9" ry="5.9"/>
<path class="st0" d="M19.9,749c-1.4,0-2.5,1.1-2.5,2.5v38.1c0,1.4,1.1,2.5,2.5,2.5h5.9c1.4,0,2.5-1.1,2.5-2.5s-1.1-2.4-2.4-2.4h-3.5
	v-35.7C22.4,750.1,21.3,749,19.9,749z"/>
<path class="st0" d="M80.1,749c-1.4,0-2.5,1.1-2.5,2.5v35.7h-3c-1.4,0-2.5,1.1-2.5,2.5s1.1,2.5,2.5,2.5H80c1.4,0,2.5-1.1,2.5-2.5
	v-38.1C82.6,750.1,81.5,749,80.1,749z"/>
<path class="st0" d="M51.6,708.5c-1-0.9-2.4-0.9-3.2,0L5.8,745.7c-1,0.9-1.1,2.5-0.2,3.5s2.5,1.1,3.5,0.2l40.8-35.7l40.8,35.7
	c0.5,0.4,1,0.6,1.6,0.6c0.7,0,1.4-0.2,1.9-0.9c1.1-1,1-2.6,0-3.5L51.6,708.5z"/>
<path class="st0" d="M33.1,754.7l-1.4,10.9c-0.1,1.4,0.7,2.6,2.1,2.7c0.1,0,0.2,0,0.4,0c1.2,0,2.4-0.9,2.5-2.2l1.1-9.4l7.4-3v10.8
	c0,1.4,1.1,2.5,2.5,2.5c0.2,0,0.5,0,0.7-0.1l9.4,7.3l3.8,11.5c0.4,1,1.4,1.7,2.4,1.7c0.2,0,0.5,0,0.7-0.1c1.2-0.4,2-1.9,1.6-3.1
	l-4.2-12.3c-0.1-0.5-0.5-0.9-0.9-1.1L50,761.7V754l8.4,5.6c0.4,0.2,0.9,0.4,1.4,0.4s1-0.1,1.5-0.5l5.4-4.1c1.1-0.9,1.4-2.4,0.5-3.5
	c-0.8-0.9-2.5-1.2-3.4-0.4l-4.1,3l-6.9-4.6c3.2-1.2,5.4-4.3,5.4-7.9c0-4.7-3.8-8.5-8.5-8.5s-8.5,3.8-8.5,8.5c0,2.7,1.2,5.1,3.2,6.7
	l-9.8,4C33.7,753.1,33.1,753.8,33.1,754.7z M49.6,738.3c2,0,3.6,1.6,3.6,3.6s-1.6,3.6-3.6,3.6s-3.6-1.6-3.6-3.6
	C45.9,739.9,47.5,738.3,49.6,738.3z"/>
<path class="st0" d="M46.1,770.3c-1.2-0.6-2.7-0.2-3.3,1L36,783.6c-0.6,1.2-0.2,2.7,1,3.3c0.4,0.2,0.7,0.4,1.2,0.4
	c0.9,0,1.7-0.5,2.2-1.2l6.8-12.3C47.7,772.5,47.3,771,46.1,770.3z"/>
<path class="st0" d="M153,743.3c0-0.1,0.1-0.2,0.1-0.3s0.1-0.3,0.1-0.4c0-0.1,0-0.2,0-0.3s0-0.3,0-0.4c0-0.1,0-0.2,0-0.3
	s0-0.3,0-0.4c0-0.1-0.1-0.2-0.1-0.3s-0.1-0.3-0.1-0.4c0-0.1-0.1-0.2-0.2-0.3c-0.1-0.1-0.1-0.2-0.2-0.3c-0.1-0.1-0.1-0.2-0.2-0.3
	c-0.1-0.1-0.1-0.2-0.2-0.3s-0.2-0.1-0.3-0.2c-0.1-0.1-0.2-0.2-0.3-0.2c-0.1-0.1-0.2-0.1-0.3-0.2c-0.1-0.1-0.2-0.1-0.3-0.2
	c-0.1,0-0.2-0.1-0.3-0.1s-0.2-0.1-0.4-0.1c-0.1,0-0.2,0-0.3,0s-0.3,0-0.4,0c-0.1,0-0.2,0-0.3,0s-0.3,0-0.4,0c-0.1,0-0.2,0.1-0.3,0.1
	s-0.3,0.1-0.4,0.1s-0.1,0.1-0.2,0.1c-0.1,0.1-0.3,0.1-0.4,0.2c-0.1,0-0.1,0.1-0.2,0.1c-0.1,0.1-0.3,0.2-0.4,0.3
	c-0.1,0.1-0.1,0.1-0.1,0.2c-0.1,0.1-0.2,0.2-0.3,0.4c-0.1,0.1-0.1,0.2-0.2,0.3s-0.1,0.2-0.2,0.3c-0.1,0.2-0.1,0.3-0.1,0.5
	c0,0.1,0,0.1,0,0.2c0,0.2,0,0.4,0,0.6v0.1c0,0.1,0,0.2,0,0.3s0,0.3,0,0.4c0,0.1,0.1,0.2,0.1,0.3s0.1,0.3,0.1,0.4
	c0,0.1,0.1,0.2,0.2,0.3c0.1,0.1,0.1,0.2,0.2,0.3c0.1,0.1,0.1,0.2,0.2,0.3c0.1,0.1,0.1,0.2,0.2,0.3s0.2,0.1,0.3,0.2
	c0.1,0.1,0.2,0.2,0.3,0.2c0.1,0.1,0.2,0.1,0.3,0.2c0.1,0.1,0.2,0.1,0.3,0.2c0.1,0,0.2,0.1,0.3,0.1s0.3,0.1,0.4,0.1
	c0.1,0,0.2,0,0.3,0s0.3,0,0.4,0c0.1,0,0.2,0,0.3,0s0.3,0,0.4,0c0.1,0,0.2-0.1,0.3-0.1s0.3-0.1,0.4-0.1s0.2-0.1,0.3-0.2
	c0.1-0.1,0.2-0.1,0.3-0.1c0.1-0.1,0.2-0.1,0.3-0.2c0.1-0.1,0.2-0.1,0.3-0.2c0.1-0.1,0.2-0.2,0.3-0.3s0.1-0.1,0.2-0.2
	c0.1-0.1,0.1-0.2,0.2-0.3C152.9,743.5,152.9,743.4,153,743.3z"/>
<path class="st0" d="M151.6,708.5c-1-0.9-2.4-0.9-3.2,0l-42.6,37.1c-1,0.9-1.1,2.5-0.2,3.5s2.5,1.1,3.5,0.2l8.4-7.3v47.6
	c0,1.4,1.1,2.5,2.5,2.5h54.7h4.4h1c1.4,0,2.5-1.1,2.5-2.5v-47.4l8.2,7.1c0.5,0.4,1,0.6,1.6,0.6c0.7,0,1.4-0.2,1.9-0.9
	c1.1-1,1-2.6,0-3.5L151.6,708.5z M147.2,773.8l-6.8,12.3c-0.5,0.7-1.4,1.2-2.2,1.2c-0.5,0-0.9-0.1-1.2-0.4c-1.2-0.6-1.6-2.1-1-3.3
	l6.8-12.3c0.6-1.2,2.1-1.6,3.3-1C147.3,771,147.7,772.5,147.2,773.8z M166.7,755.4l-5.4,4.1c-0.5,0.4-1,0.5-1.5,0.5s-1-0.1-1.4-0.4
	L150,754v7.7l11.3,8.9c0.4,0.2,0.7,0.6,0.9,1.1l4.2,12.3c0.4,1.2-0.4,2.7-1.6,3.1c-0.2,0.1-0.5,0.1-0.7,0.1c-1,0-2-0.7-2.4-1.7
	l-3.8-11.5l-9.4-7.3c-0.2,0.1-0.5,0.1-0.7,0.1c-1.4,0-2.5-1.1-2.5-2.5v-10.8l-7.4,3l-1.1,9.4c-0.1,1.4-1.2,2.2-2.5,2.2
	c-0.1,0-0.2,0-0.4,0c-1.4-0.1-2.2-1.4-2.1-2.7l1.4-10.9c0-0.9,0.6-1.6,1.5-2l9.8-4c-2-1.6-3.2-4-3.2-6.7c0-4.7,3.8-8.5,8.5-8.5
	s8.5,3.8,8.5,8.5c0,3.6-2.2,6.7-5.4,7.9l6.9,4.6l4.1-3c1-0.7,2.6-0.5,3.5,0.5C168.1,753.1,167.8,754.6,166.7,755.4z"/>
<path class="st0" d="M90,557.4c-0.9-0.6-2.1-0.3-2.7,0.7c-0.6,0.9-0.3,2.1,0.7,2.7c2.7,1.6,5.9,4.2,5.9,7.1
	c0,5.8-13.1,12.8-34.9,14.4c-1.1,0-1.9,1-1.8,2.1c0.1,1.1,1,1.9,2,1.9c0.1,0,0.1,0,0.1,0c19.2-1.4,38.6-7.6,38.6-18.3
	C97.9,565.2,96.6,561.1,90,557.4z"/>
<path class="st0" d="M50,586.5c0.8,0,1.5-0.4,1.7-1.2c0.3-0.7,0.2-1.5-0.3-2.1l-6.9-7.8c-0.7-0.9-2-0.9-2.8-0.2
	c-0.9,0.7-0.9,2-0.2,2.8l4,4.5c-23.5-0.9-39.6-8.1-39.6-14.7c0-2.5,2.3-5.1,6.3-7.3c1-0.5,1.3-1.7,0.8-2.7s-1.7-1.3-2.7-0.8
	c-6.8,3.9-8.3,8-8.3,10.8C2.1,578.5,22.7,586.5,50,586.5z"/>
<path class="st0" d="M50.9,513.8c-0.6-0.4-1.2-0.4-1.7-0.2L31.6,522c-0.8,0.2-1.4,0.8-1.4,1.7v7.5l-13.1,6.2
	c-0.6,0.3-0.9,0.8-0.9,1.5v20.3c0,0.7,0.3,1.3,0.9,1.6L40.8,572c0.1,0,0.1,0,0.2,0.1c0.1,0,0.1,0,0.2,0.1c0.2,0,0.3,0.1,0.4,0.1
	c0.1,0,0.3,0,0.4-0.1c0.1,0,0.1,0,0.1-0.1c0.1,0,0.1,0,0.2-0.1l40.6-19.2c0.6-0.3,0.9-0.8,0.9-1.5v-0.6V531v-0.6
	c-0.1-0.7-0.4-1.3-1-1.5L50.9,513.8z M51.6,517.9l27.1,12.7l-17.5,8.2l-9.6-4.4V517.9z M33.6,526.6l3.1,1.4l-3.1,1.4V526.6z
	 M38.1,531.1v15.4l-16.4-7.7L38.1,531.1z M39.7,567.7l-20.2-9.6v-16.6l20.2,9.6V567.7z M40.5,526.1l-4.8-2.3l12.6-6v16.6l-6.7,3.2
	v-8.9v-0.1c0-0.2,0-0.3-0.1-0.5C41.6,527.3,41.3,526.5,40.5,526.1z M41.5,548.2v-6.9l8.4-4l7.3,3.5L41.5,548.2z M80.3,550.2
	l-37.2,17.6v-16.6l18.5-8.7c0.2-0.1,0.3-0.2,0.5-0.3l18.2-8.6V550.2z"/>
<path class="st0" d="M197.9,567.9c0-2.7-1.4-6.7-7.9-10.5c-0.9-0.6-2.1-0.3-2.7,0.7c-0.6,0.9-0.3,2.1,0.7,2.7
	c2.7,1.6,5.9,4.2,5.9,7.1c0,5.8-13.1,12.8-34.9,14.4c-1.1,0-1.9,1-1.8,2.1s1,1.9,2,1.9c0.1,0,0.1,0,0.1,0
	C178.6,584.8,197.9,578.6,197.9,567.9z"/>
<path class="st0" d="M150,586.5c0.8,0,1.5-0.4,1.7-1.2c0.3-0.7,0.2-1.5-0.3-2.1l-6.9-7.8c-0.7-0.9-2-0.9-2.8-0.2
	c-0.9,0.7-0.9,2-0.2,2.8l4,4.5c-23.5-0.9-39.6-8.1-39.6-14.7c0-2.5,2.3-5.1,6.3-7.3c1-0.5,1.3-1.7,0.8-2.7s-1.7-1.3-2.7-0.8
	c-6.8,3.9-8.3,8-8.3,10.8C102.1,578.5,122.7,586.5,150,586.5z"/>
<path class="st0" d="M117.2,560.8l23.7,11.2c0.1,0,0.1,0,0.2,0.1c0.1,0,0.1,0,0.2,0.1c0.2,0,0.3,0.1,0.4,0.1c0.1,0,0.3,0,0.4-0.1
	c0.1,0,0.1,0,0.1-0.1c0.1,0,0.1,0,0.2-0.1l40.6-19.2c0.6-0.3,0.9-0.8,0.9-1.5v-0.6V531v-0.6c-0.1-0.7-0.4-1.3-1-1.5l-31.8-15
	l-0.1-0.1c-0.5-0.3-1.1-0.3-1.6-0.1l-17.7,8.3c-0.8,0.2-1.4,0.8-1.4,1.7v7.5l-13.1,6.2c-0.6,0.3-0.9,0.8-0.9,1.5v20.3
	C116.2,559.8,116.6,560.4,117.2,560.8z M162.1,542.2l18.2-8.6v16.6l-37.2,17.6v-16.6l18.5-8.7C161.8,542.4,162,542.3,162.1,542.2z
	 M149.9,537.3l7.3,3.5l-15.7,7.4v-6.9L149.9,537.3z M148.2,517.8v16.6l-6.7,3.2v-8.9v-0.1c0-0.2,0-0.3-0.1-0.5
	c0.2-0.8-0.2-1.6-0.9-2l-4.8-2.3L148.2,517.8z M133.6,526.6l3.1,1.4l-3.1,1.4V526.6z M119.5,541.6l20.2,9.6v16.6l-20.2-9.6V541.6z"
	/>
<path class="st0" d="M55.9,607.3H18.3c-3.9,0-7,3.6-7,8.1v69.1c0,4.5,3.1,8.1,7,8.1h63.4c3.9,0,7-3.6,7-8.1v-46.3
	c0-4.4-3.1-8.1-7-8.1H62.9v-14.7C62.9,610.9,59.8,607.3,55.9,607.3z M78.3,635c3.4,0,5.8,2.8,5.8,6.9V681c0.2,4.2-2.2,6.8-5.6,6.8
	H62.9v-27.6h-4.5v27.6H21.2c-3.4,0-5.5-2.9-5.5-7v-24.1H43v-5.1H15.8v-31.8c0-0.3-0.6-7.5,5.9-7.5h31c3.4,0,5.8,2.8,5.8,6.9v19.3H52
	v5.1h17.2v-5.1h-6.4V635H78.3z"/>
<path class="st0" d="M75.5,387.3h-5.9v5.9h19.8v-5.9h-7.9V319c0-1.6-1-3-2.4-3.6l-14.8-7.8c-1.2-0.6-2.5-0.7-3.6-0.1l-28.2,13.8
	c-1.3,0.6-2.2,2-2.2,3.5V336l-9.1,4c-2.9,1.3-4.7,4.1-4.7,7.2v40h-5.9v5.9h51.2v-5.9H22.5v-40c0-0.8,0.5-1.5,1.2-1.8l29.3-13
	c0.3-0.1,0.5-0.2,0.8-0.2c1.1,0,2,0.9,2,2v47.3h5.9v-47.3c0-1.1-0.3-2.2-0.7-3.2c-1.8-4-6.4-5.8-10.4-4l-14.4,6.4V326l26.2-12.8
	l13.1,6.9V387.3L75.5,387.3z"/>
<path class="st0" d="M48.2,358.9l-19.1,7.7c-1.5,0.6-2.2,2.2-1.6,3.7s2.3,2.3,3.8,1.7l19.1-7.6c1.5-0.7,2.2-2.3,1.6-3.8
	S49.7,358.3,48.2,358.9z"/>
<path class="st0" d="M52,348.8c-0.6-1.5-2.3-2.3-3.8-1.7l-19.1,7.7c-1.5,0.6-2.2,2.3-1.6,3.8s2.3,2.3,3.8,1.7l19.1-7.7
	C51.9,351.9,52.6,350.3,52,348.8z"/>
<path class="st0" d="M155.9,607.3h-37.6c-3.9,0-7,3.6-7,8.1v69.1c0,4.5,3.1,8.1,7,8.1h63.4c3.9,0,7-3.6,7-8.1v-46.3
	c0-4.4-3.1-8.1-7-8.1h-18.8v-14.7C162.9,610.9,159.8,607.3,155.9,607.3z M178.3,635c3.4,0,5.8,2.8,5.8,6.9V681
	c0.2,4.2-2.2,6.8-5.6,6.8h-15.6v-7.4v-20.2v-8.7h-19.8h-3.4h-23.9v-31.8c0-0.3-0.6-7.5,5.9-7.5h31c3.4,0,5.8,2.8,5.8,6.9v19.3H152
	v5.1h17.2v-5.1h-6.4V635H178.3z"/>
<path class="st0" d="M148.2,347.1l-19.1,7.7c-1.5,0.6-2.2,2.3-1.6,3.8s2.3,2.3,3.8,1.7l19.1-7.7c1.5-0.6,2.2-2.3,1.6-3.8
	C151.4,347.2,149.7,346.5,148.2,347.1z"/>
<path class="st0" d="M148.2,358.9l-19.1,7.7c-1.5,0.6-2.2,2.3-1.6,3.8s2.3,2.3,3.8,1.7l19.1-7.7c1.5-0.6,2.2-2.3,1.6-3.8
	C151.4,359,149.7,358.3,148.2,358.9z"/>
<path class="st0" d="M179,315.3l-14.8-7.8c-1.1-0.6-2.4-0.6-3.6-0.1l-28.2,13.8c-1.4,0.7-2.2,2-2.2,3.5V336l-9.1,4
	c-2.8,1.3-4.7,4.1-4.7,7.2v40h-5.9v5.9h45.1h6h7.9h6.4h13.3v-5.9h-7.8v-68.3C181.4,317.3,180.5,315.9,179,315.3z M155.7,372.8v8.7
	v5.7h-33.3v-40c0-0.8,0.5-1.5,1.2-1.8l29.3-13c0.3-0.1,0.5-0.2,0.8-0.2c1.1,0,2,0.9,2,2V372.8z"/>
<path class="st0" d="M52.8,857.3c3.6,8.7-0.2,18-5.4,22.6s-3.5,11.3,0.7,13.3c7.7,3.7,14,1.2,16.8-10.5c1.7-6.9,7-10.6,9.7-14.2
	c8.5-11.5-5.8-20.3-5.8-20.3C61.6,844.1,49.3,848.6,52.8,857.3z"/>
<path class="st0" d="M56.8,842.3c1.9-0.2,3.2-2.3,3-5.6c-0.3-3.3-1.9-4.7-3.8-4.6c-1.9,0.2-3.3,1.8-3,5.1
	C53.2,840.6,54.9,842.4,56.8,842.3z"/>
<path class="st0" d="M81.7,856.6c0.7,0.3,1.8-0.3,2.5-1.8c0.8-1.5,0.5-2.5-0.3-2.8c-0.7-0.3-1.7,0.1-2.4,1.6S81,856.3,81.7,856.6z"
	/>
<path class="st0" d="M66.1,834.2c-1.2,0-2.2,1.2-2.2,3.7s1,4,2.2,4c1.2,0,2.2-1.5,2.2-4S67.3,834.2,66.1,834.2z"/>
<path class="st0" d="M73,844c1,0.4,2.3-0.7,3.1-2.9c0.7-2.2,0.3-3.5-0.8-3.8c-1-0.4-2.2,0.4-3,2.6C71.5,842,71.9,843.7,73,844z"/>
<path class="st0" d="M81.4,844.2c-0.8-0.5-2,0-2.9,1.7s-0.8,3.1,0,3.6s2.1-0.2,3-1.9C82.4,845.8,82.2,844.6,81.4,844.2z"/>
<path class="st0" d="M17.3,833c0.6,4.4,3.5,10.2,1.7,17.1c-3.1,11.6,1.3,16.8,9.8,17.3c4.6,0.3,9.3-4.8,6.9-11.4
	c-2.4-6.5-1.3-16.5,6-22.4s-1.3-15.8-9.6-15.6C32.1,818,15.3,818.8,17.3,833z"/>
<path class="st0" d="M45.5,818.5c1.6,1,4,0.2,5.8-2.6s1.4-4.9-0.2-5.9c-1.6-1-3.7-0.6-5.5,2.2C43.8,814.9,43.9,817.5,45.5,818.5z"/>
<path class="st0" d="M15.4,816.3c-0.1,1.6,0.5,2.7,1.3,2.7c0.8,0.1,1.5-0.8,1.6-2.5c0.1-1.6-0.5-2.5-1.3-2.5
	C16.2,813.9,15.5,814.7,15.4,816.3z"/>
<path class="st0" d="M37.5,809.1c-1.3,2.2-1.1,4,0,4.6s2.7-0.3,3.9-2.5s0.9-3.7-0.2-4.3S38.7,806.9,37.5,809.1z"/>
<path class="st0" d="M29.1,808.3c-0.4,2.2,0.3,3.8,1.3,4c1.1,0.2,2.2-1.1,2.6-3.3c0.4-2.3-0.3-3.5-1.4-3.7S29.5,806,29.1,808.3z"/>
<path class="st0" d="M24.7,811.2c0-2-0.8-2.9-1.7-2.9c-1,0-1.7,0.9-1.7,2.9s0.8,3.2,1.7,3.2C24,814.4,24.7,813.2,24.7,811.2z"/>
<path class="st0" d="M152.5,857.3c3.6,8.7-0.2,18-5.4,22.6s-3.5,11.3,0.7,13.3c7.7,3.7,14,1.2,16.8-10.5c1.7-6.9,7-10.6,9.7-14.2
	c8.6-11.5-5.8-20.3-5.8-20.3C161.3,844.1,149,848.6,152.5,857.3z"/>
<path class="st0" d="M156.6,842.3c1.9-0.2,3.2-2.3,3-5.6c-0.3-3.3-1.9-4.7-3.8-4.6c-1.9,0.2-3.3,1.8-3,5.1
	C153,840.6,154.7,842.4,156.6,842.3z"/>
<path class="st0" d="M181.5,856.6c0.7,0.3,1.8-0.3,2.5-1.8s0.5-2.5-0.3-2.8c-0.7-0.3-1.7,0.1-2.4,1.6S180.8,856.3,181.5,856.6z"/>
<path class="st0" d="M168.1,837.9c0-2.5-1-3.7-2.2-3.7s-2.2,1.2-2.2,3.7s1,4,2.2,4S168.1,840.4,168.1,837.9z"/>
<path class="st0" d="M172.8,844c1,0.4,2.3-0.7,3.1-2.9c0.7-2.2,0.3-3.5-0.8-3.8c-1-0.4-2.2,0.4-3,2.6
	C171.3,842,171.7,843.7,172.8,844z"/>
<path class="st0" d="M181.1,844.2c-0.8-0.5-2,0-2.9,1.7s-0.8,3.1,0,3.6s2.1-0.2,3-1.9C182.2,845.8,182,844.6,181.1,844.2z"/>
<path class="st0" d="M117.1,833c0.6,4.4,3.5,10.2,1.7,17.1c-3.1,11.6,1.3,16.8,9.8,17.3c4.6,0.3,9.3-4.8,6.9-11.4
	c-2.4-6.5-1.3-16.5,6-22.4s-1.3-15.8-9.6-15.6C131.9,818,115.1,818.8,117.1,833z"/>
<path class="st0" d="M150.9,810c-1.6-1-3.7-0.6-5.5,2.2c-1.9,2.7-1.7,5.3-0.1,6.3c1.6,1,4,0.2,5.8-2.6
	C152.9,813.1,152.5,811,150.9,810z"/>
<path class="st0" d="M116.8,814c-0.8-0.1-1.5,0.7-1.6,2.3s0.5,2.7,1.3,2.7c0.7,0.1,1.5-0.8,1.6-2.5C118.2,814.9,117.6,814,116.8,814
	z"/>
<path class="st0" d="M141.2,811.2c1.2-2.2,0.9-3.7-0.2-4.3s-2.5,0-3.7,2.2c-1.3,2.2-1.1,4,0,4.6C138.4,814.3,140,813.4,141.2,811.2z
	"/>
<path class="st0" d="M132.8,809c0.4-2.3-0.3-3.5-1.4-3.7c-1.1-0.2-2.1,0.7-2.5,3c-0.4,2.2,0.2,3.8,1.3,4S132.4,811.2,132.8,809z"/>
<path class="st0" d="M124.5,811.2c0-2-0.8-2.9-1.7-2.9c-1,0-1.7,0.9-1.7,2.9s0.8,3.2,1.7,3.2C123.8,814.4,124.5,813.2,124.5,811.2z"
	/>
<g>
	<path class="st0" d="M32.1,935.5h6.6c0.4,0,0.7-0.3,0.7-0.7v-6.6c0-0.4-0.3-0.7-0.7-0.7h-6.6c-0.4,0-0.7,0.3-0.7,0.7v6.6
		C31.4,935.2,31.7,935.5,32.1,935.5z M32.7,928.9H38v5.3h-5.3V928.9z"/>
	<path class="st0" d="M93,984.5h-3.3v-11.2c0-1.1-0.7-2-1.8-2H83v-11.9h4.6c1.1,0,2-0.9,2-2l0.1-7.9c0-1.1-0.9-2-2-2l0,0H83V927
		l6.6,2.1c0.2,0.1,0.4,0.1,0.6,0.1c0.8,0,1.6-0.5,1.9-1.4c0.3-1-0.2-2.2-1.3-2.5l0,0l-11.1-3.6l-29.9-9.9c-0.1,0-0.1,0-0.2,0
		c-0.1,0-0.1,0-0.2,0c-0.1,0-0.2,0-0.3,0s-0.1,0-0.2,0c-0.1,0-0.2,0-0.3,0.1h-0.1l-29.7,9.9l-11.1,3.6c-1,0.3-1.6,1.5-1.3,2.5
		c0.3,1,1.5,1.6,2.5,1.3l6.5-2.1v20.4h-4.6c-1.1,0-2,0.9-2,2l0,0v7.9c0,1.1,0.9,2,2,2h4.6v11.9h-4.6c-1.1,0-2,0.9-2,2l0,0v11.2h-2
		c-1.1,0-2,0.9-2,2s0.9,2,2,2h86c1.1,0,2-0.9,2-2C95,985.3,94.1,984.5,93,984.5z M36.7,984.5H17.5h-4.6v-9.3h23.8
		C36.7,975.2,36.7,984.5,36.7,984.5z M47.3,984.5h-6.6v-11.2c0-1.1-0.9-2-2-2H19.5v-11.9h27.8V984.5z M47.3,955.3H12.9v-4h34.4
		C47.3,951.3,47.3,955.3,47.3,955.3z M47.3,947.4H19.5v-5.3h27.8V947.4z M47.3,940.8H19.5v-15.1l0.6-0.2l8-2.6l0,0
		c0.2-0.1,0.3-0.1,0.5-0.2l18.7-6.2C47.3,916.5,47.3,940.8,47.3,940.8z M51.3,916.4l18.8,6.2c0.1,0.1,0.3,0.2,0.5,0.2l8,2.6l0.5,0.2
		l0,0v15.1H51.3V916.4z M51.3,942.1h27.8v5.3H51.3V942.1z M51.3,951.4h34.4v4H51.3V951.4z M57.9,973.2v11.2h-6.6v-25.1h27.8v11.9
		H59.9C58.8,971.2,57.9,972.1,57.9,973.2z M85.7,984.5h-4.5H61.9v-9.3h23.8V984.5z"/>
	<path class="st0" d="M66.5,927.5h-6.6c-0.4,0-0.7,0.3-0.7,0.7v6.6c0,0.4,0.3,0.7,0.7,0.7h6.6c0.4,0,0.7-0.3,0.7-0.7v-6.6
		C67.2,927.8,66.9,927.5,66.5,927.5z M65.8,934.2h-5.3v-5.3h5.3V934.2z"/>
</g>
<path class="st0" d="M192.8,984.5L192.8,984.5h-3.3v-11.3c0-1.1-0.7-2-1.8-2h-4.8v-11.9h4.6c1.1,0,2-0.9,2-2l0.1-7.9
	c0-1.1-0.9-2-2-2H183v-20.5l6.6,2.1c0.2,0.1,0.4,0.1,0.6,0.1c0.8,0,1.6-0.5,1.9-1.4c0.3-1-0.2-2.2-1.3-2.5l0,0l0,0l-11.1-3.6
	l-29.9-9.9c-0.1,0-0.1,0-0.2,0c-0.1,0-0.1,0-0.2,0c-0.1,0-0.2,0-0.3,0s-0.1,0-0.2,0c-0.1,0-0.2,0-0.3,0.1h-0.1l-29.7,9.9l-11.1,3.6
	c-1,0.3-1.6,1.4-1.3,2.5c0.3,1,1.4,1.6,2.5,1.3l0,0l6.5-2.1v20.5h-4.6c-1.1,0-2,0.9-2,2l0,0v7.9c0,1.1,0.9,2,2,2h4.6v11.9h-4.6
	c-1.1,0-2,0.9-2,2v11.3h-2c-1.1,0-2,0.9-2,2s0.9,2,2,2h86c1.1,0,2-0.9,2-2S193.9,984.5,192.8,984.5z M131.2,928.2L131.2,928.2
	c0-0.4,0.3-0.7,0.7-0.7h6.6c0.4,0,0.7,0.3,0.7,0.7v6.6c0,0.4-0.3,0.7-0.7,0.7h-6.6c-0.4,0-0.7-0.3-0.7-0.7V928.2z M136.5,984.5
	h-19.2h-4.6v-9.3h23.8V984.5z M147.1,955.3h-34.4v-4h34.4V955.3z M159,934.8v-6.6c0-0.4,0.3-0.7,0.7-0.7h6.6c0.4,0,0.7,0.3,0.7,0.7
	v6.6c0,0.4-0.3,0.7-0.7,0.7h-6.6C159.3,935.5,159,935.2,159,934.8L159,934.8z M151.1,951.4h34.4v4h-34.4V951.4z M185.5,984.5H181
	h-19.3v-9.3h23.8V984.5z"/>
<path class="st0" d="M187.5,481.4l-2.1-60.5c0-5.4-4.7-9.8-10.5-9.8h-50.3c-5.8,0-10.5,4.4-10.5,9.8l-2.1,60.5h7.3
	c-0.1,0.3-0.1,0.6-0.1,0.9v2c0,2.5,2,4.5,4.5,4.5h6.5c2.5,0,4.5-2,4.5-4.5v-2c0-0.3,0-0.6-0.1-0.9h29.9c-0.1,0.3-0.1,0.6-0.1,0.9v2
	c0,2.5,2,4.5,4.5,4.5h6.5c2.5,0,4.5-2,4.5-4.5v-2c0-0.3,0-0.6-0.1-0.9H187.5z M125.1,471.9c-3.2,0-5.7-2.6-5.7-5.8
	c0-3.2,2.6-5.8,5.7-5.8c3.2,0,5.8,2.6,5.8,5.8C130.8,469.4,128.3,471.9,125.1,471.9z M121,451.1l0.8-24.8c0-5.5,2-7.6,7-7.6h42
	c5,0,7,2.2,7,7.6l0.8,24.8H121z M174.6,471.9c-3.2,0-5.8-2.6-5.8-5.8c0-3.2,2.6-5.8,5.8-5.8s5.8,2.6,5.8,5.8
	C180.4,469.4,177.8,471.9,174.6,471.9z"/>
<path class="st0" d="M94.9,451.1c0-4.2-3.3-7.7-7.4-7.7l0-21.3c0-6-4.7-10.9-10.6-10.9H22.7c-5.8,0-10.6,4.9-10.6,10.9v21.3
	c-4,0.2-7.2,3.5-7.2,7.7c0,4.2,3.2,7.5,7.2,7.7v19.2c0,1.3,1,2.4,2.3,2.4h1.8v2.9c0,3,1.5,4.3,2.7,4.9c1.3,0.7,2.9,0.7,4.5,0.7h2.6
	c2.2,0,7.2,0,7.2-5.6v-2.9h33.2v2.9c0,3,1.5,4.3,2.7,4.9c1.3,0.7,2.9,0.7,4.5,0.7h2.6c2.2,0,7.2,0,7.2-5.6v-2.9h1.8
	c1.3,0,2.3-1.1,2.3-2.4v-19.1C91.6,458.8,94.9,455.3,94.9,451.1L94.9,451.1z M9.5,451.1c0-1.6,1.2-2.8,2.6-3v6
	C10.7,453.9,9.5,452.6,9.5,451.1L9.5,451.1z M28.7,483.2c0,0.4-0.1,0.6-0.1,0.6c-0.2,0.2-1.1,0.3-2.6,0.3h-2.6
	c-1.5,0-2.3-0.1-2.5-0.2c0,0-0.1-0.3-0.1-0.7v-2.9h7.9V483.2L28.7,483.2z M78.9,483.2c0,0.4-0.1,0.6-0.1,0.6
	c-0.2,0.2-1.1,0.3-2.6,0.3h-2.6c-1.5,0-2.3-0.1-2.5-0.2c0,0-0.1-0.3-0.1-0.7v-2.9h7.9L78.9,483.2L78.9,483.2L78.9,483.2z M83,462.5
	H70.9c-1.3,0-2.3,1.1-2.3,2.4s1,2.4,2.3,2.4H83v8.4H16.7v-8.4h12.1c1.3,0,2.3-1.1,2.3-2.4s-1-2.4-2.3-2.4H16.7v-9.7H83L83,462.5
	L83,462.5L83,462.5z M83,448.1H16.7v-26c0-3.4,2.7-6.2,6-6.2h54.2c3.3,0,6,2.8,6,6.2L83,448.1L83,448.1z M87.5,454.1v-6
	c1.6,0,2.9,1.4,2.9,3C90.4,452.7,89.1,454.1,87.5,454.1L87.5,454.1z"/>
<path class="st0" d="M50,110c-22.1,0-40,17.9-40,40s17.9,40,40,40s40-17.9,40-40S72.1,110,50,110z M50,184.7
	c-19.1,0-34.7-15.5-34.7-34.7s15.5-34.7,34.7-34.7s34.7,15.5,34.7,34.7S69.1,184.7,50,184.7z M68.7,139.3c0-7.4-6-13.3-13.3-13.3
	c-5.4,0-21.3,0-21.3,0c-1.5,0-2.7,1.2-2.7,2.7v42.7c0,1.5,1.2,2.7,2.7,2.7s2.7-1.2,2.7-2.7v-18.7c0,0,8.1,0,15.1,0
	c0.2,0.4,0.5,0.9,0.7,1.3l10.7,18.5c0.7,1.3,2.3,1.7,3.6,1c1.3-0.7,1.7-2.3,1-3.6l-10-17.4C64,151.3,68.7,145.8,68.7,139.3z
	 M55.3,147.3c-4.4,0-18.7,0-18.7,0v-16h18.7c4.4,0,8,3.6,8,8S59.8,147.3,55.3,147.3z"/>
<path class="st0" d="M155,131.3h-18.7v16c0,0,14.2,0,18.7,0s8-3.6,8-8S159.5,131.3,155,131.3z M149.7,110c-22.1,0-40,17.9-40,40
	s17.9,40,40,40c22.1,0,40-17.9,40-40S171.8,110,149.7,110z M167.5,169.8c0.7,1.3,0.1,2.9-1.1,3.6c-1.3,0.7-3.3,0.3-4-1L151.7,154
	c-0.3-0.4-0.3-0.9-0.2-1.3c-7,0-15.1,0-15.1,0v18.7c0,1.5-1.2,2.7-2.7,2.7c-1.5,0-2.7-1.2-2.7-2.7v-42.7c0-1.5,1.2-2.7,2.7-2.7
	c0,0,15.9,0,21.3,0c7.4,0,13.3,6,13.3,13.3c0,6.5-4.7,11.9-10.9,13.1L167.5,169.8z"/>
</svg>
