<?xml version="1.0" encoding="utf-8"?>
<!-- Generator: Adobe Illustrator 22.0.0, SVG Export Plug-In . SVG Version: 6.00 Build 0)  -->
<svg version="1.1" id="Layer_1" xmlns="http://www.w3.org/2000/svg" xmlns:xlink="http://www.w3.org/1999/xlink" x="0px" y="0px"
	 viewBox="0 0 175 100" style="enable-background:new 0 0 175 100;" xml:space="preserve">
<style type="text/css">
	.st0{fill:#FFFFFF;}
</style>
<g>
	<polygon class="st0" points="117.5,65.8 103.1,30.9 101.3,30.9 116.7,68.5 118.3,68.5 133.7,30.9 131.8,30.9 	"/>
	<path class="st0" d="M155.5,53.9c1.1-0.2,2.2-0.5,3.1-1.1c1.1-0.7,2.1-1.5,2.9-2.6c0.8-1,1.4-2.3,1.9-3.6c0.4-1.3,0.7-2.8,0.7-4.2
		s-0.3-2.8-0.8-4.2s-1.2-2.6-2.1-3.7c-0.9-1.1-2-2-3.2-2.6c-1.3-0.7-2.6-1-4.1-1h-14.5v37.6h1.8V54h12.3l8.8,14.5h2.1L155.5,53.9z
		 M141.2,32.7H154c1.1,0,2.2,0.3,3.2,0.8s1.9,1.3,2.7,2.2s1.4,1.9,1.8,3.1c0.4,1.2,0.7,2.4,0.7,3.6c0,1.2-0.2,2.4-0.6,3.6
		c-0.4,1.2-0.9,2.2-1.6,3.1c-0.7,0.9-1.6,1.6-2.6,2.2c-1,0.6-2.1,0.8-3.3,0.8h-13.1L141.2,32.7L141.2,32.7z"/>
</g>
<path class="st0" d="M50.4,10.7c-21.5,0-39,17.5-39,39c0,21.5,17.5,39,39,39c21.5,0,39-17.5,39-39C89.4,28.2,71.9,10.7,50.4,10.7z
	 M31.3,68.8v-6c7.8,0,14.2-3.9,14.2-8.6c0-4.7-6.3-8.6-14.2-8.6v-6c11.2,0,20.3,6.6,20.2,14.6C51.5,62.2,42.5,68.8,31.3,68.8z
	 M51.5,36.6H31.3v-6h20.2V36.6z M69.5,68.8h-6V36.6h-6v-6h6H65h4.5V68.8z"/>
</svg>
