<?xml version="1.0" encoding="utf-8"?>
<!-- Generator: Adobe Illustrator 22.1.0, SVG Export Plug-In . SVG Version: 6.00 Build 0)  -->
<svg version="1.1" id="Layer_1" xmlns="http://www.w3.org/2000/svg" xmlns:xlink="http://www.w3.org/1999/xlink" x="0px" y="0px"
	 viewBox="0 0 200 200" style="enable-background:new 0 0 200 200;" xml:space="preserve">
<style type="text/css">
	.st0{opacity:0.8;fill:#121212;fill-opacity:0.6;enable-background:new    ;}
	.st1{fill:#FFFFFF;}
</style>
<path class="st0" d="M100,200C44.8,200,0,155.2,0,100S44.8,0,100,0s100,44.8,100,100S155.2,200,100,200z"/>
<g>
	<path class="st1" d="M147.5,61.6h-95c-7.8,0-14.1,6.3-14.1,14v48.6c0,7.8,6.3,14.1,14.1,14.1h16.6v-0.1c4-0.2,7.7-2.2,10.1-5.4
		l0.1,0.1l15.1-20.5l0.1,0.1c1.4-1.7,3.5-2.7,5.7-2.7c2.3,0,4.4,1.1,5.7,2.8l0.1-0.1l6.6,9.1l7.9,10.8c2.4,3.6,6.5,5.9,11.1,5.9
		h15.7c7.8,0,14.1-6.3,14.1-14.1V75.7C161.6,67.9,155.3,61.6,147.5,61.6z M69.6,107.5c-7.4,0-13.4-6-13.4-13.4s6-13.4,13.4-13.4
		S83,86.7,83,94.1C83.1,101.4,77,107.5,69.6,107.5z M129.2,107.5c-7.4,0-13.4-6-13.4-13.4s6-13.4,13.4-13.4c7.4,0,13.4,6,13.4,13.4
		C142.7,101.4,136.6,107.5,129.2,107.5z"/>
</g>
</svg>
