<?xml version="1.0" encoding="utf-8"?>
<!-- Generator: Adobe Illustrator 23.0.0, SVG Export Plug-In . SVG Version: 6.00 Build 0)  -->
<svg version="1.1" id="Layer_1" xmlns="http://www.w3.org/2000/svg" xmlns:xlink="http://www.w3.org/1999/xlink" x="0px" y="0px"
	 viewBox="0 0 200 200" style="enable-background:new 0 0 200 200;" xml:space="preserve">
<style type="text/css">
	.st0{opacity:0.8;fill:#121212;fill-opacity:0.6;enable-background:new    ;}
	.st1{fill:#FFFFFF;}
</style>
<path class="st0" d="M100,200C44.8,200,0,155.2,0,100S44.8,0,100,0s100,44.8,100,100S155.2,200,100,200z"/>
<g>
	<path class="st1" d="M39.7,111c-0.4,5.8-3.3,8.8-8.8,8.8h-8.8c-2.4,0-4.5-0.9-6.2-2.6s-2.6-3.8-2.6-6.2V89c0-2.4,0.8-4.4,2.5-6.1
		c1.7-1.7,3.8-2.6,6.2-2.6H31c5.5,0,8.4,2.9,8.8,8.8h-4.4c-0.3-2.9-1.8-4.4-4.4-4.4h-4.4c-1.2,0-2.2,0.4-3.1,1.3
		c-0.9,0.9-1.3,1.9-1.3,3.1V111c0,1.2,0.4,2.2,1.3,3.1c0.9,0.9,1.9,1.3,3.1,1.3H31c2.6,0,4-1.5,4.4-4.4H39.7z"/>
	<path class="st1" d="M44.6,119.7V89c0-2.4,0.9-4.5,2.6-6.2c1.7-1.7,3.8-2.6,6.2-2.6h8.8c2.4,0,4.5,0.9,6.2,2.6
		c1.7,1.7,2.6,3.8,2.6,6.2v30.7h-8.8v-17.6h-8.8v17.6H44.6z M53.3,97.8h8.8V89c0-1.2-0.4-2.2-1.3-3.1c-0.9-0.9-1.9-1.3-3.1-1.3
		c-1.2,0-2.2,0.4-3.1,1.3c-0.9,0.9-1.3,1.9-1.3,3.1V97.8z"/>
	<path class="st1" d="M75.7,119.7V80.3h17.6c2.4,0,4.5,0.9,6.2,2.6c1.7,1.7,2.6,3.8,2.6,6.2v2.4c0,2-0.7,3.8-2,5.7
		c-1.3,1.8-3.6,2.7-6.7,2.7h4.4c1.2,0,2.2,0.4,3.1,1.3c0.9,0.9,1.3,1.9,1.3,3.1v15.5h-8.8v-13.2c0-1.2-0.4-2.2-1.3-3.1
		c-0.9-0.9-1.9-1.3-3.1-1.3h-4.4v17.6H75.7z M84.4,97.8h4.4c1.2,0,2.2-0.4,3.1-1.3c0.9-0.9,1.3-1.9,1.3-3.1V89
		c0-1.2-0.4-2.2-1.3-3.1c-0.9-0.9-1.9-1.3-3.1-1.3h-4.4V97.8z"/>
	<path class="st1" d="M106.8,119.7V80.3h17.6c2.4,0,4.5,0.9,6.2,2.6c1.7,1.7,2.6,3.8,2.6,6.2v4.4c0,2.4-0.9,4.5-2.6,6.2
		c-1.7,1.7-3.8,2.6-6.2,2.6h-8.8v17.6H106.8z M115.5,97.8h4.4c1.2,0,2.2-0.4,3.1-1.3c0.9-0.9,1.3-1.9,1.3-3.1V89
		c0-1.2-0.4-2.2-1.3-3.1c-0.9-0.9-1.9-1.3-3.1-1.3h-4.4V97.8z"/>
	<path class="st1" d="M137.9,119.7V80.3h21.9v4.4h-13.2v13.2h8.8v4.4h-8.8v13.2h13.2v4.4H137.9z"/>
	<path class="st1" d="M169,119.7V84.7h-8.8v-4.4h26.3v4.4h-8.8v35.1H169z"/>
</g>
</svg>
