<?xml version="1.0" encoding="utf-8"?>
<!-- Generator: Adobe Illustrator 23.0.0, SVG Export Plug-In . SVG Version: 6.00 Build 0)  -->
<svg version="1.1" id="Layer_1" xmlns="http://www.w3.org/2000/svg" xmlns:xlink="http://www.w3.org/1999/xlink" x="0px" y="0px"
	 viewBox="0 0 200 200" style="enable-background:new 0 0 200 200;" xml:space="preserve">
<style type="text/css">
	.st0{opacity:0.8;fill:#121212;fill-opacity:0.6;enable-background:new    ;}
	.st1{fill:#FFFFFF;}
</style>
<path class="st0" d="M100,200C44.8,200,0,155.2,0,100S44.8,0,100,0s100,44.8,100,100S155.2,200,100,200z"/>
<g>
	<path class="st1" d="M14.5,123.7V76.3h26.4v5.3H25.1v15.8h10.6v5.2H25.1v21.1H14.5z"/>
	<path class="st1" d="M46.7,123.7V76.3h10.5v42.2h15.8v5.3H46.7z"/>
	<path class="st1" d="M89.5,76.3H100c2.9,0,5.4,1,7.4,3.1c2.1,2.1,3.1,4.6,3.1,7.4v26.4c0,2.9-1,5.3-3.1,7.4
		c-2.1,2.1-4.5,3.1-7.4,3.1H89.5c-2.9,0-5.4-1-7.4-3.1c-2.1-2.1-3.1-4.5-3.1-7.4V86.8c0-2.9,1-5.4,3.1-7.4
		C84.1,77.3,86.6,76.3,89.5,76.3z M89.5,86.8v26.4c0,1.4,0.5,2.6,1.5,3.7c1,1,2.3,1.6,3.7,1.6c1.5,0,2.7-0.5,3.7-1.6
		c1-1,1.5-2.3,1.5-3.7V86.8c0-1.4-0.5-2.7-1.6-3.7s-2.3-1.5-3.7-1.5c-1.5,0-2.7,0.5-3.7,1.5C90,84.1,89.5,85.4,89.5,86.8z"/>
	<path class="st1" d="M126.9,76.3h10.6c2.9,0,5.4,1,7.4,3.1c2.1,2.1,3.1,4.6,3.1,7.4v26.4c0,2.9-1,5.3-3.1,7.4
		c-2.1,2.1-4.5,3.1-7.4,3.1h-10.6c-2.9,0-5.4-1-7.4-3.1c-2.1-2.1-3.1-4.5-3.1-7.4V86.8c0-2.9,1-5.4,3.1-7.4
		C121.5,77.3,124,76.3,126.9,76.3z M126.9,86.8v26.4c0,1.4,0.5,2.6,1.5,3.7c1,1,2.3,1.6,3.7,1.6s2.7-0.5,3.7-1.6
		c1-1,1.5-2.3,1.5-3.7V86.8c0-1.4-0.5-2.7-1.6-3.7s-2.3-1.5-3.7-1.5c-1.5,0-2.7,0.5-3.7,1.5C127.4,84.1,126.9,85.4,126.9,86.8z"/>
	<path class="st1" d="M153.8,123.7V76.3h21.1c2.9,0,5.4,1,7.4,3.1c2.1,2.1,3.1,4.6,3.1,7.4v2.9c0,2.4-0.8,4.6-2.4,6.8
		c-1.6,2.2-4.3,3.3-8.1,3.3h5.2c1.5,0,2.7,0.5,3.7,1.6c1,1,1.6,2.3,1.6,3.7v18.7h-10.5v-15.8c0-1.5-0.5-2.7-1.6-3.7
		c-1-1-2.3-1.6-3.7-1.6h-5.3v21.1H153.8z M164.3,97.4h5.3c1.4,0,2.7-0.5,3.7-1.6s1.6-2.3,1.6-3.7v-5.3c0-1.4-0.5-2.7-1.6-3.7
		s-2.3-1.5-3.7-1.5h-5.3V97.4z"/>
</g>
</svg>
